HIERARCHY
ROOT root
{
	OFFSET 0.000000 0.000000 0.000000
	CHANNELS 6 Xposition Yposition Zposition Zrotation Yrotation Xrotation
	JOINT lhip
	{
		OFFSET 0.058581 -0.082280 -0.017664
		CHANNELS 3 Zrotation Yrotation Xrotation
		JOINT lknee
		{
			OFFSET 0.043451 -0.386469 0.008037
			CHANNELS 3 Zrotation Yrotation Xrotation
			JOINT lankle
			{
				OFFSET -0.014790 -0.426874 -0.037428
				CHANNELS 3 Zrotation Yrotation Xrotation
				JOINT ltoe
				{
					OFFSET 0.041054 -0.060286 0.122042
					CHANNELS 3 Zrotation Yrotation Xrotation
					End Site
					{
						OFFSET 0.000000 0.000000 0.000000
					}
				}
			}
		}
	}
	JOINT rhip
	{
		OFFSET -0.060310 -0.090513 -0.013543
		CHANNELS 3 Zrotation Yrotation Xrotation
		JOINT rknee
		{
			OFFSET -0.043257 -0.383688 -0.004843
			CHANNELS 3 Zrotation Yrotation Xrotation
			JOINT rankle
			{
				OFFSET 0.019056 -0.420046 -0.034562
				CHANNELS 3 Zrotation Yrotation Xrotation
				JOINT rtoe
				{
					OFFSET -0.034840 -0.062106 0.130323
					CHANNELS 3 Zrotation Yrotation Xrotation
					End Site
					{
						OFFSET 0.000000 0.000000 0.000000
					}
				}
			}
		}
	}
	JOINT lowerback
	{
		OFFSET 0.004439 0.124404 -0.038385
		CHANNELS 3 Zrotation Yrotation Xrotation
		JOINT upperback
		{
			OFFSET 0.004488 0.137956 0.026820
			CHANNELS 3 Zrotation Yrotation Xrotation
			JOINT chest
			{
				OFFSET -0.002265 0.056032 0.002855
				CHANNELS 3 Zrotation Yrotation Xrotation
				JOINT lowerneck
				{
					OFFSET -0.013390 0.211636 -0.033468
					CHANNELS 3 Zrotation Yrotation Xrotation
					JOINT upperneck
					{
						OFFSET 0.010113 0.088937 0.050410
						CHANNELS 3 Zrotation Yrotation Xrotation
						End Site
						{
							OFFSET 0.000000 0.000000 0.000000
						}
					}
				}
				JOINT lclavicle
				{
					OFFSET 0.071702 0.114000 -0.018898
					CHANNELS 3 Zrotation Yrotation Xrotation
					JOINT lshoulder
					{
						OFFSET 0.122921 0.045205 -0.019046
						CHANNELS 3 Zrotation Yrotation Xrotation
						JOINT lelbow
						{
							OFFSET 0.255332 -0.015649 -0.022946
							CHANNELS 3 Zrotation Yrotation Xrotation
							JOINT lwrist
							{
								OFFSET 0.265709 0.012698 -0.007375
								CHANNELS 3 Zrotation Yrotation Xrotation
								End Site
								{
									OFFSET 0.000000 0.000000 0.000000
								}
							}
						}
					}
				}
				JOINT rclavicle
				{
					OFFSET -0.082954 0.112472 -0.023707
					CHANNELS 3 Zrotation Yrotation Xrotation
					JOINT rshoulder
					{
						OFFSET -0.113228 0.046853 -0.008472
						CHANNELS 3 Zrotation Yrotation Xrotation
						JOINT relbow
						{
							OFFSET -0.260127 -0.014369 -0.031269
							CHANNELS 3 Zrotation Yrotation Xrotation
							JOINT rwrist
							{
								OFFSET -0.269108 0.006794 -0.006027
								CHANNELS 3 Zrotation Yrotation Xrotation
								End Site
								{
									OFFSET 0.000000 0.000000 0.000000
								}
							}
						}
					}
				}
			}
		}
	}
}
MOTION
Frames: 8
Frame Time: 0.033333
-0.158902 0.341006 0.987940 70.526598 2.247438 90.770741 2.778990 0.255595 3.206498 -4.744644 -9.960244 11.603920 1.569239 4.935579 -15.971456 0.000000 -0.000000 0.000000 -5.743295 -2.493998 -20.231353 0.412872 -7.913523 25.888372 4.628087 -5.473474 -5.999618 0.000000 -0.000000 0.000000 2.884581 -4.734611 14.036433 3.761022 -4.131977 -1.058267 3.165801 -3.563617 -1.703224 -1.308923 15.783801 -12.725218 -2.142035 15.456108 0.989150 -25.974293 -15.684945 4.525396 -57.822037 -15.846237 25.764767 -5.184373 -69.912814 14.110806 33.763720 -6.859300 -31.360093 24.117384 13.432012 -0.153338 47.659633 15.950356 25.939355 7.239893 63.260410 19.043024 -22.108287 17.015344 -12.435474 
-0.175031 0.357011 0.988274 70.245258 2.562361 90.902335 2.579715 0.263391 2.385041 -4.785779 -9.886914 10.354547 2.501242 5.070847 -15.728349 0.000000 -0.000000 0.000000 -6.029190 -2.450810 -21.629385 0.497603 -7.808766 25.571565 5.469740 -5.350703 -4.436975 0.000000 -0.000000 0.000000 2.764929 -4.817557 14.466672 3.824188 -4.172061 -1.151287 3.268060 -3.404082 -1.609062 -1.924677 15.817272 -13.143982 -1.972367 15.358859 0.564372 -25.596869 -16.563890 4.433533 -58.293732 -16.443514 26.286028 -5.603396 -68.506174 13.377470 34.980062 -5.563622 -31.151257 24.409006 13.962161 0.324064 47.822674 16.286796 25.797450 5.175296 62.116770 16.542448 -22.647981 16.957202 -11.248651 
-0.189768 0.371198 0.988178 69.501642 2.600871 90.722885 2.194451 0.546372 1.864956 -4.943138 -9.380810 9.440610 3.085290 5.186083 -15.153491 0.000000 -0.000000 0.000000 -6.262895 -2.309482 -22.423940 0.587645 -6.940970 25.584869 6.262985 -4.705112 -5.673839 0.000000 -0.000000 0.000000 2.336518 -4.503646 14.965764 3.675112 -4.025341 -1.182394 3.304145 -3.123803 -1.470761 -2.285662 16.039732 -13.401773 -1.729264 14.984778 0.355569 -25.172048 -17.176164 4.265207 -58.700763 -16.503188 26.700861 -5.731021 -67.696465 11.982728 36.766766 -4.185960 -31.560963 24.638022 14.647800 0.838703 48.092319 16.476363 25.867907 4.178172 61.381199 15.049814 -23.431184 16.843032 -10.428960 
-0.203349 0.382837 0.988598 68.495255 2.475086 90.487987 1.742107 0.677728 1.059778 -5.160803 -8.693123 9.325123 3.163303 5.533305 -14.306453 0.000000 -0.000000 0.000000 -6.082041 -2.024191 -22.909994 0.771008 -5.687300 27.200195 5.648575 -4.218311 -9.638419 0.000000 -0.000000 0.000000 1.720870 -3.919371 15.195364 3.450709 -3.708409 -1.262483 3.238560 -2.886264 -1.252192 -2.254127 16.505455 -13.487398 -1.589139 14.363188 0.877826 -25.283685 -17.278435 4.108958 -58.588509 -16.109805 26.936598 -5.583639 -67.118564 10.086457 38.149867 -2.916391 -32.032133 25.380668 15.142041 1.138824 48.046239 16.681262 26.302415 4.810544 60.500305 15.490132 -24.229768 17.003744 -9.680971 
-0.215058 0.392727 0.990438 67.509155 2.444662 90.269294 1.328932 0.372409 0.150859 -5.265708 -8.037196 9.712678 3.217686 6.125080 -13.667774 0.000000 -0.000000 0.000000 -5.425219 -1.753661 -22.882915 0.690941 -5.544128 30.298378 4.327189 -4.744360 -12.964573 0.000000 -0.000000 0.000000 1.445555 -3.516407 14.904370 3.195366 -3.339309 -1.313191 2.975630 -2.540098 -0.996526 -2.171680 16.710643 -13.176603 -1.428239 14.033488 1.516685 -25.645309 -16.785583 3.959998 -58.501111 -15.519669 26.976268 -5.229747 -66.360290 8.154567 38.807014 -1.751503 -32.795867 26.114206 15.248640 1.271197 48.208534 16.903884 26.775866 6.161841 59.181106 16.904949 -23.868147 17.129227 -9.035321 
-0.224866 0.401134 0.992300 66.703641 2.452507 89.959841 0.876606 0.028536 -0.307873 -5.102993 -7.460564 9.716050 3.536123 6.744759 -13.015709 0.000000 -0.000000 0.000000 -4.647000 -1.624460 -21.932803 0.540340 -6.306548 33.606185 3.314010 -5.609462 -14.698251 0.000000 -0.000000 0.000000 1.342484 -3.243722 14.345320 2.965226 -3.025261 -1.290358 2.709894 -2.109611 -0.783292 -2.069955 16.560712 -12.551363 -1.214014 13.959132 2.066002 -25.737539 -16.180878 3.847910 -58.895448 -14.793309 26.808740 -4.607693 -65.533471 6.668253 39.130266 -0.516674 -33.383249 26.301763 15.309179 1.494513 48.896573 16.906289 26.990231 6.896023 57.928379 17.819700 -23.106380 17.117373 -8.675285 
-0.233946 0.408085 0.993237 65.980494 2.281929 89.768152 0.462251 -0.302217 -0.481609 -4.988620 -6.956694 9.083220 3.869202 7.193734 -12.166858 0.000000 -0.000000 0.000000 -3.922151 -1.658570 -20.410233 0.650356 -6.846181 36.379528 2.904921 -6.022209 -15.324796 0.000000 -0.000000 0.000000 0.921468 -2.696695 13.579701 2.840973 -2.751535 -1.201607 2.602762 -1.775621 -0.637475 -1.797985 16.427836 -12.150539 -0.899729 13.717357 2.822859 -25.748526 -15.670732 3.790324 -59.229843 -14.094875 26.597278 -4.603854 -64.862431 5.697704 39.334691 0.570891 -33.413909 26.505144 15.325770 1.721142 49.470472 16.706714 27.207361 7.048523 56.909897 18.512320 -22.856996 17.530093 -7.367491 
-0.242676 0.413674 0.993600 65.357415 1.899462 89.779537 0.103459 -0.666112 -0.721237 -5.103236 -6.422478 8.281359 4.026904 7.405877 -11.258426 0.000000 -0.000000 0.000000 -3.345901 -1.796494 -18.417283 0.995483 -7.179123 38.101778 2.951339 -5.979396 -15.446007 0.000000 -0.000000 0.000000 0.172060 -1.988116 12.615480 2.780561 -2.600098 -1.055562 2.604213 -1.527143 -0.606405 -1.419901 16.401809 -11.906076 -0.562818 13.339390 3.535237 -25.778105 -15.082980 3.798703 -59.474822 -13.545643 26.518845 -4.552425 -64.491306 4.620493 39.110036 1.377039 -33.933627 26.919950 15.173451 1.870801 49.929715 16.571134 27.518117 6.999713 55.829161 18.816688 -22.533297 17.989855 -6.483376 
